:FULLY-SPECIFIED
:FORCE-ALL-JOINTS-BE-3DOF
:DEGREES
1019
root 1.1473 15.1614 32.4404 4.85938 -3.4924 3.57228
lfemur 8.45026 0.524147 5.72189
ltibia -5.24792e-14 0 0
lfoot -30.1341 -11.0216 -5.58154e-06
ltoes -34.3729 0 0
rfemur -31.6037 -15.8832 -6.01524
rtibia 50.1753 -0 0
rfoot -22.3915 4.68346 0.000499331
rtoes -42.5675 0 0
lowerback -1.41194 -0.154038 0.289285
upperback -0.545406 -0.194918 -5.9224
thorax 0.209363 -0.105281 -6.30662
lowerneck -7.20022 0.933891 6.21749
upperneck 1.65891 0.557249 3.54483
head 1.75298 0.414939 0.0822414
lclavicle -2.28602e-15 -1.90833e-14 0
lhumerus -58.6997 -46.4877 115.39
lradius 55.6844 -0 0
lwrist 25.1948 0 0
lhand 37.2102 24.8609 0.000158763
lfingers 7.12502 -0 0
lthumb 60.045 38.5936 8.36899e-05
rclavicle -2.28602e-15 -1.90833e-14 0
rhumerus 2.82154 -23.8876 0.16532
rradius 27.6587 -0 0
rwrist -10.3577 0 0
rhand -30.7665 -42.9438 0.000299227
rfingers 7.12502 -0 0
rthumb -4.05772 -72.8849 0.000286952
1020
root 1.14774 15.1611 32.4425 4.85498 -3.47523 3.56091
lfemur 8.45549 0.50723 5.73434
ltibia -5.24792e-14 0 0
lfoot -30.1371 -11.0181 -5.11641e-06
ltoes -34.3826 0 0
rfemur -31.5864 -15.8924 -6.01273
rtibia 50.1814 -0 0
rfoot -22.3685 4.72498 0.00045772
rtoes -42.5109 0 0
lowerback -1.42238 -0.14804 0.274458
upperback -0.542126 -0.186152 -5.93053
thorax 0.219615 -0.100634 -6.30667
lowerneck -7.20142 0.926548 6.23824
upperneck 1.66641 0.545115 3.54595
head 1.75561 0.409363 0.0786743
lclavicle -2.28602e-15 -1.90833e-14 0
lhumerus -58.6982 -46.5013 115.38
lradius 55.6969 -0 0
lwrist 25.2047 0 0
lhand 37.2215 24.8875 0.000145533
lfingers 7.12502 -0 0
lthumb 60.0547 38.61 7.67157e-05
rclavicle -2.28602e-15 -1.90833e-14 0
rhumerus 2.80275 -23.8794 0.178702
rradius 27.6492 -0 0
rwrist -10.318 0 0
rhand -30.7528 -42.9022 0.000274291
rfingers 7.12502 -0 0
rthumb -4.04446 -72.8436 0.000263039
1021
root 1.14818 15.1608 32.4446 4.85057 -3.45805 3.54953
lfemur 8.46071 0.490311 5.74679
ltibia -5.24792e-14 0 0
lfoot -30.1401 -11.0145 -4.46523e-06
ltoes -34.3922 0 0
rfemur -31.569 -15.9016 -6.01023
rtibia 50.1876 -0 0
rfoot -22.3456 4.7665 0.000399464
rtoes -42.4543 0 0
lowerback -1.43282 -0.142045 0.25963
upperback -0.538847 -0.177386 -5.93866
thorax 0.229867 -0.0959877 -6.30672
lowerneck -7.20262 0.919205 6.259
upperneck 1.67392 0.532981 3.54706
head 1.75824 0.403786 0.075107
lclavicle -2.28602e-15 -1.90833e-14 0
lhumerus -58.6967 -46.515 115.37
lradius 55.7095 -0 0
lwrist 25.2147 0 0
lhand 37.2329 24.9142 0.00012701
lfingers 7.12502 -0 0
lthumb 60.0645 38.6264 6.69519e-05
rclavicle -2.28602e-15 -1.90833e-14 0
rhumerus 2.78397 -23.8713 0.19208
rradius 27.6397 -0 0
rwrist -10.2783 0 0
rhand -30.739 -42.8606 0.000239382
rfingers 7.12502 -0 0
rthumb -4.03119 -72.8022 0.000229561
1022
root 1.14862 15.1605 32.4467 4.84616 -3.44088 3.53815
lfemur 8.46594 0.473392 5.75924
ltibia -5.24792e-14 0 0
lfoot -30.1431 -11.011 -3.628e-06
ltoes -34.4018 0 0
rfemur -31.5516 -15.9107 -6.00773
rtibia 50.1937 -0 0
rfoot -22.3226 4.80802 0.000324565
rtoes -42.3978 0 0
lowerback -1.44326 -0.136052 0.244802
upperback -0.535569 -0.168619 -5.94679
thorax 0.24012 -0.0913412 -6.30677
lowerneck -7.20383 0.911862 6.27975
upperneck 1.68143 0.520847 3.54816
head 1.76088 0.39821 0.0715394
lclavicle -2.28602e-15 -1.90833e-14 0
lhumerus -58.6952 -46.5286 115.359
lradius 55.722 -0 0
lwrist 25.2246 0 0
lhand 37.2443 24.9408 0.000103196
lfingers 7.12502 -0 0
lthumb 60.0742 38.6428 5.43984e-05
rclavicle -2.28602e-15 -1.90833e-14 0
rhumerus 2.76519 -23.8631 0.205455
rradius 27.6302 -0 0
rwrist -10.2386 0 0
rhand -30.7253 -42.819 0.000194497
rfingers 7.12502 -0 0
rthumb -4.01793 -72.7609 0.000186519
1023
root 1.14906 15.1601 32.4488 4.84175 -3.4237 3.52677
lfemur 8.47115 0.456471 5.77168
ltibia -5.24792e-14 0 0
lfoot -30.1462 -11.0075 -2.60472e-06
ltoes -34.4115 0 0
rfemur -31.5342 -15.9199 -6.00523
rtibia 50.1998 -0 0
rfoot -22.2996 4.84954 0.000233021
rtoes -42.3412 0 0
lowerback -1.45371 -0.130062 0.229972
upperback -0.532293 -0.159852 -5.95493
thorax 0.250372 -0.0866946 -6.30681
lowerneck -7.20504 0.90452 6.3005
upperneck 1.68894 0.508712 3.54927
head 1.76351 0.392634 0.0679716
lclavicle -2.28602e-15 -1.90833e-14 0
lhumerus -58.6937 -46.5422 115.349
lradius 55.7345 -0 0
lwrist 25.2345 0 0
lhand 37.2557 24.9675 7.40894e-05
lfingers 7.12502 -0 0
lthumb 60.0839 38.6593 3.90553e-05
rclavicle -2.28602e-15 -1.90833e-14 0
rhumerus 2.74641 -23.8549 0.218826
rradius 27.6208 -0 0
rwrist -10.1989 0 0
rhand -30.7116 -42.7774 0.000139639
rfingers 7.12502 -0 0
rthumb -4.00466 -72.7196 0.000133911
1024
root 1.1495 15.1598 32.4509 4.83734 -3.40653 3.51538
lfemur 8.47637 0.439549 5.78413
ltibia -5.24792e-14 0 0
lfoot -30.1492 -11.0039 -1.39539e-06
ltoes -34.4211 0 0
rfemur -31.5169 -15.9291 -6.00273
rtibia 50.206 -0 0
rfoot -22.2767 4.89106 0.000124832
rtoes -42.2847 0 0
lowerback -1.46415 -0.124075 0.215141
upperback -0.529018 -0.151085 -5.96306
thorax 0.260625 -0.0820481 -6.30686
lowerneck -7.20625 0.897178 6.32126
upperneck 1.69644 0.496578 3.55038
head 1.76615 0.387059 0.0644035
lclavicle -2.28602e-15 -1.90833e-14 0
lhumerus -58.6922 -46.5559 115.339
lradius 55.747 -0 0
lwrist 25.2445 0 0
lhand 37.267 24.9941 3.96907e-05
lfingers 7.12502 -0 0
lthumb 60.0937 38.6757 2.09225e-05
rclavicle -2.28602e-15 -1.90833e-14 0
rhumerus 2.72764 -23.8468 0.232193
rradius 27.6113 -0 0
rwrist -10.1592 0 0
rhand -30.6978 -42.7358 7.48066e-05
rfingers 7.12502 -0 0
rthumb -3.9914 -72.6783 7.17378e-05
1025
root 1.14994 15.1595 32.453 4.83292 -3.38936 363.504
lfemur 8.48158 0.422626 5.79657
ltibia -4.77083e-15 0 0
lfoot -30.1522 -11.0004 0
ltoes -34.4308 0 0
rfemur -31.4995 -15.9383 -6.00024
rtibia 50.2121 0 0
rfoot -22.2537 4.93258 0
rtoes -42.2281 0 0
lowerback -1.4746 -0.118091 0.200309
upperback -0.525744 -0.142317 -5.97119
thorax 0.270877 -0.0774016 -6.3069
lowerneck -7.20747 0.889837 6.34201
upperneck 1.70395 0.484443 3.55148
head 1.76878 0.381483 0.0608352
lclavicle -7.15625e-15 -5.88403e-14 0
lhumerus -58.6907 -46.5695 115.329
lradius 55.7595 0 0
lwrist 25.2544 0 0
lhand 37.2784 25.0208 0
lfingers 7.12502 0 0
lthumb 60.1034 38.6921 0
rclavicle -7.15625e-15 -5.88403e-14 0
rhumerus 2.70887 -23.8386 0.245556
rradius 27.6018 0 0
rwrist -10.1195 0 0
rhand -30.6841 -42.6942 0
rfingers 7.12502 0 0
rthumb -3.97813 -792.637 0
1026
root 1.1522 15.1593 32.4563 4.83483 -3.39203 3.50588
lfemur 8.49201 0.42591 5.78835
ltibia -4.77083e-15 0 0
lfoot -30.1621 -11.0153 1.93171e-05
ltoes -34.4124 0 0
rfemur -31.4905 -15.9578 -6.01391
rtibia 50.2085 -0 0
rfoot -22.2402 4.99428 0.000109383
rtoes -42.1611 0 0
lowerback -1.487 -0.115008 0.182789
upperback -0.523073 -0.137379 -5.97605
thorax 0.28116 -0.0747162 -6.30195
lowerneck -7.19481 0.886111 6.35096
upperneck 1.67768 0.481046 3.55299
head 1.7579 0.378816 0.0596155
lclavicle -7.15625e-15 -5.88403e-14 0
lhumerus -58.6952 -46.5905 115.331
lradius 55.7641 -0 0
lwrist 25.2871 0 0
lhand 37.2816 25.0331 5.22796e-06
lfingers 7.12502 -0 0
lthumb 60.1062 38.7015 3.3901e-06
rclavicle -7.15625e-15 -5.88403e-14 0
rhumerus 2.69913 -23.8469 0.257944
rradius 27.5905 -0 0
rwrist -10.0986 0 0
rhand -30.6836 -42.6823 8.58538e-07
rfingers 7.12502 -0 0
rthumb -3.97759 -72.6251 8.37952e-07
